<svg xmlns="http://www.w3.org/2000/svg" width="100" height="80" viewBox="0 0 100 80"><path d="M47.234-27.641l-18-7.031A4.687,4.687,0,0,0,27.5-35a4.748,4.748,0,0,0-1.734.328l-18,7.031A4.225,4.225,0,0,0,5-23.75C5-6.313,15.734,5.75,25.766,9.672A4.687,4.687,0,0,0,27.5,10a4.748,4.748,0,0,0,1.734-.328C37.25,6.547,50-4.3,50-23.75A4.225,4.225,0,0,0,47.234-27.641ZM25,3.75C17.469-.437,10.219-9.937,10-23.141L25-29Zm2.594,1.266A.069.069,0,0,1,27.641,5h-.078A.054.054,0,0,0,27.594,5.016ZM30,3.828V-29l15,5.859C44.766-8.328,36.078.328,30,3.828ZM-42.5,5A2.507,2.507,0,0,1-45,2.5V-4A16.011,16.011,0,0,1-29-20c3.062,0,6.109,2.5,14,2.5C-7.125-17.5-4.062-20-1-20c.406,0,.781.094,1.172.125C.063-21.141,0-22.422,0-23.75a8.882,8.882,0,0,1,.172-1.125C-.219-24.891-.594-25-1-25c-4.484,0-6.641,2.5-14,2.5S-24.5-25-29-25A21.005,21.005,0,0,0-50-4V2.5A7.5,7.5,0,0,0-42.5,10h55a7.69,7.69,0,0,0,3-.625A40.42,40.42,0,0,1,10.859,5ZM-15-30A20,20,0,0,0,5-50,20,20,0,0,0-15-70,20,20,0,0,0-35-50,20,20,0,0,0-15-30Zm0-35A15.024,15.024,0,0,1,0-50,15.024,15.024,0,0,1-15-35,15.024,15.024,0,0,1-30-50,15.024,15.024,0,0,1-15-65Z" transform="translate(50 70)" fill="#2ca9e1"/></svg>