<svg xmlns="http://www.w3.org/2000/svg" width="99.125" height="80.375" viewBox="0 0 99.125 80.375"><g transform="translate(-2165 -1836)"><path d="M63,80H7a7.008,7.008,0,0,1-7-7V66A20.7,20.7,0,0,1,2.916,55.4a21.386,21.386,0,0,1,7.615-7.508L6.5,38.484A2.5,2.5,0,0,1,8.8,35h6.578A19.707,19.707,0,0,1,15,31.25a17.53,17.53,0,0,1,.344-3.3C8.771,26.379,5,24.089,5,21.672c0-2.488,3.952-4.829,10.843-6.422A40.5,40.5,0,0,1,22.3,1.906,5.015,5.015,0,0,1,26.234,0c1.219,0,1.719.254,4.5,1.661l0,0c.581.295,1.24.629,2.032,1.024a5.283,5.283,0,0,0,2.269.527,4.881,4.881,0,0,0,2.2-.527c.775-.389,1.423-.718,2-1.009l.006,0C42.028.256,42.531,0,43.765,0a5.005,5.005,0,0,1,3.954,1.922,40.513,40.513,0,0,1,6.453,13.344C61.053,16.86,65,19.195,65,21.672c0,2.4-3.77,4.691-10.344,6.281A17.534,17.534,0,0,1,55,31.25,19.629,19.629,0,0,1,54.625,35h6.75a2.5,2.5,0,0,1,2.345,3.39l-3.735,9.781A21.467,21.467,0,0,1,64,51.38v9.067a15.941,15.941,0,0,0-6.64-8.025L53.843,50.25,57.75,40H52.907c-.729,1.49-9.955,16.8-10.048,16.953L47.672,75H63a2.009,2.009,0,0,0,1-.265V77a6.012,6.012,0,0,0,.689,2.794A7,7,0,0,1,63,80ZM29.078,50.25h0l3.422,6L27.5,75h15l-5-18.75,3.422-6a19.486,19.486,0,0,1-5.922,1,19.389,19.389,0,0,1-5.922-1ZM12.594,40l4.281,10-3.844,2.218A15.828,15.828,0,0,0,5,66v7a2,2,0,0,0,2,2H22.328l4.829-18.047-.05-.082c-1.553-2.579-9.333-15.514-10-16.871H12.594Zm7.5-9.984A10.726,10.726,0,0,0,20,31.25a15.008,15.008,0,0,0,30.016,0,10.725,10.725,0,0,0-.094-1.234c-.2.114-.8.512-.906.843q-.091.285-.18.572a10.053,10.053,0,0,1-2.4,4.647,6.282,6.282,0,0,1-3.986,1.414c-1.924,0-4.529-.923-6.014-5.32A1.482,1.482,0,0,0,35,31.187a1.461,1.461,0,0,0-1.424.985c-1.5,4.41-4.048,5.335-5.926,5.336a6.646,6.646,0,0,1-4.074-1.43,9.926,9.926,0,0,1-2.361-4.541c-.071-.224-.144-.454-.217-.678C20.889,30.526,20.278,30.129,20.093,30.016ZM26.219,5c-3.764,4.738-5.657,11.591-6.3,14.317-.016.069-.027.113-.032.136l-1.12.258-.008,0a41.273,41.273,0,0,0-6.842,1.959C15.868,23.28,24,25,35,25s19.13-1.719,23.078-3.328a42.434,42.434,0,0,0-7.106-2.022h-.005l-.857-.2c-.005-.02-.014-.058-.026-.111-.493-2.125-2.4-9.433-6.286-14.327L43.781,5c-.671.334-1.28.644-1.818.918C38.878,7.487,37.469,8.2,35,8.2c-2.492,0-3.838-.687-7.089-2.345-.5-.257-1.073-.548-1.692-.858Z" transform="translate(2165 1836)" fill="#2ca9e1"/><path d="M8.063-16.8A1.011,1.011,0,0,0,7.055-17.8H-7.055A1.011,1.011,0,0,0-8.062-16.8v2.352a1.011,1.011,0,0,0,1.008,1.008H7.055a1.011,1.011,0,0,0,1.008-1.008ZM7.055-10.75H-7.055A1.011,1.011,0,0,0-8.062-9.742v2.352A1.011,1.011,0,0,0-7.055-6.383H7.055A1.011,1.011,0,0,0,8.063-7.391V-9.742A1.011,1.011,0,0,0,7.055-10.75Zm9.07-15.8a4.017,4.017,0,0,0-1.184-2.847L7.895-36.441a4.031,4.031,0,0,0-2.847-1.184H-12.094a4.032,4.032,0,0,0-4.031,4.031V1.344a4.032,4.032,0,0,0,4.031,4.031H12.094a4.032,4.032,0,0,0,4.031-4.031ZM5.375-33.266l6.391,6.391H5.375Zm6.719,34.61H-12.094V-33.594H1.344v8.734a2.011,2.011,0,0,0,2.016,2.016h8.734Z" transform="translate(2248 1911)" fill="#2ca9e1"/></g></svg>