<svg width="209" height="223" viewBox="0 0 209 223" fill="none" xmlns="http://www.w3.org/2000/svg">
<path d="M195.938 36.1681L112.338 1.30728C110.16 0.43576 106.677 0 104.5 0C101.887 0 98.4042 0.43576 96.2271 1.30728L12.6271 36.1681C4.78958 39.6541 0 47.062 0 55.3415C0 142.058 49.6375 201.757 96.2271 221.366C101.452 223.545 107.113 223.545 112.338 221.366C149.783 205.679 209 152.08 209 55.3415C209 47.062 203.775 39.6541 195.938 36.1681ZM107.113 208.293C105.371 209.165 103.194 209.165 101.452 208.293C59.2167 191.298 13.9333 132.035 13.9333 55.3415C13.9333 52.7269 15.2396 50.1124 17.8521 49.2408L101.452 14.3801C103.194 13.5085 105.371 13.5085 107.113 14.3801L190.712 49.2408C193.325 50.1124 194.631 52.7269 194.631 55.3415C195.067 132.035 149.783 191.298 107.113 208.293Z" fill="#2CA9E1"/>
<path d="M137.5 98.3093C137.5 99.7325 138.516 100.749 139.938 100.749H141.562C142.781 100.749 144 99.7325 144 98.3093V96.6828C144 95.463 142.781 94.2431 141.562 94.2431H139.938C138.516 94.2431 137.5 95.463 137.5 96.6828V98.3093ZM157 77.9782C157 72.6921 152.531 68.2193 147.25 68.2193H114.75L129.781 54.5974C131.203 53.3776 131.203 51.3445 129.984 50.1246C128.969 48.7014 126.734 48.7014 125.516 49.9213L105 68.2193L84.2812 49.718C83.0625 48.7014 80.8281 48.7014 79.8125 50.1246C78.5938 51.3445 78.5938 53.3776 80.0156 54.5974L95.25 68.2193H62.75C57.2656 68.2193 53 72.6921 53 77.9782V136.532C53 142.021 57.2656 146.291 62.75 146.291H66V153H69.25L71.4844 146.291H138.516L140.75 153H144V146.291H147.25C152.531 146.291 157 142.021 157 136.532V77.9782ZM150.5 77.9782V136.532C150.5 138.362 148.875 139.785 147.25 139.785H62.75C60.9219 139.785 59.5 138.362 59.5 136.532V77.9782C59.5 76.3517 60.9219 74.7252 62.75 74.7252H147.25C148.875 74.7252 150.5 76.3517 150.5 77.9782ZM98.5 87.9405C112.312 87.9405 120.031 88.5504 123.891 88.957C124.094 91.8034 124.5 97.2928 124.5 107.255C124.5 117.624 124.094 123.317 123.891 126.163C120.031 126.57 112.312 126.976 98.5 126.976C84.4844 126.976 76.7656 126.57 72.9062 126.163C72.7031 123.113 72.5 117.624 72.5 107.255C72.5 97.2928 72.7031 91.8034 72.9062 88.957C76.7656 88.5504 84.4844 87.9405 98.5 87.9405ZM98.5 81.4345C72.5 81.4345 67.625 83.061 67.625 83.061C67.625 83.061 66 83.061 66 107.255C66 131.856 67.625 131.856 67.625 131.856C67.625 131.856 72.5 133.482 98.5 133.482C124.5 133.482 129.375 131.856 129.375 131.856C129.375 131.856 131 131.856 131 107.255C131 83.061 129.375 83.061 129.375 83.061C129.375 83.061 124.5 81.4345 98.5 81.4345ZM139.938 113.761H141.562C142.781 113.761 144 112.744 144 111.321V109.695C144 108.475 142.781 107.255 141.562 107.255H139.938C138.516 107.255 137.5 108.475 137.5 109.695V111.321C137.5 112.744 138.516 113.761 139.938 113.761Z" fill="#2CA9E1"/>
</svg>
