<svg width="62" height="62" viewBox="0 0 62 62" fill="none" xmlns="http://www.w3.org/2000/svg">
<path d="M31 0C13.875 0 0 14 0 31C0 48.125 13.875 62 31 62C48 62 62 48.125 62 31C62 14 48 0 31 0ZM31 58C16.125 58 4 46 4 31C4 16.25 16 4 31 4C45.75 4 58 16.125 58 31C58 45.875 45.875 58 31 58ZM48.625 23.75C49.25 23.125 49.25 22.125 48.625 21.625L47.625 20.5C47 19.875 46 19.875 45.5 20.5L25 40.75L16.375 32.125C15.875 31.5 14.875 31.5 14.25 32.125L13.25 33.125C12.625 33.75 12.625 34.625 13.25 35.25L24 46.125C24.5 46.625 25.5 46.625 26.125 46.125L48.625 23.75Z" fill="#2CA9E1"/>
</svg>
