<svg xmlns="http://www.w3.org/2000/svg" width="75" height="79.992" viewBox="0 0 75 79.992"><g transform="translate(-1543.5 -1829.004)"><path d="M32.891-56.922l-30-12.5A8.969,8.969,0,0,0,.008-70a8.97,8.97,0,0,0-2.883.574l-30,12.5A7.492,7.492,0,0,0-37.5-50c0,31.016,17.891,52.453,34.609,59.422a7.523,7.523,0,0,0,5.766,0C16.266,3.844,37.5-15.422,37.5-50A7.5,7.5,0,0,0,32.891-56.922ZM.969,4.812a2.555,2.555,0,0,1-1.922,0C-16.25-1.25-32.5-22.5-32.5-50a2.511,2.511,0,0,1,1.531-2.312l30-12.5a2.484,2.484,0,0,1,1.922,0l30,12.5A2.487,2.487,0,0,1,32.484-50C32.5-22.5,16.25-1.25.969,4.812Z" transform="translate(1581 1899)" fill="#2ca9e1"/><path d="M4.59,0V-35.01h9.961a10.887,10.887,0,0,1,7.2,2.222A7.18,7.18,0,0,1,24.414-27,8.514,8.514,0,0,1,22.8-21.826,8.689,8.689,0,0,1,18.359-18.7v.1a8.907,8.907,0,0,1,5.664,2.673,8.223,8.223,0,0,1,2.124,5.872,9.153,9.153,0,0,1-3.223,7.275A11.994,11.994,0,0,1,14.795,0Zm4.1-31.3V-20h4.2a7.974,7.974,0,0,0,5.3-1.624A5.654,5.654,0,0,0,20.117-26.2q0-5.1-6.714-5.1Zm0,14.99v12.6h5.566a8.34,8.34,0,0,0,5.6-1.709,5.854,5.854,0,0,0,1.99-4.687q0-6.2-8.447-6.2Z" transform="translate(1566 1886)" fill="#2ca9e1"/></g></svg>