<svg xmlns="http://www.w3.org/2000/svg" width="100" height="80" viewBox="0 0 100 80"><path d="M45-15H40V-30.248A4.755,4.755,0,0,0,35.248-35H2.5V-45H10a5,5,0,0,0,5-5V-65a5,5,0,0,0-5-5H-10a5,5,0,0,0-5,5v15a5,5,0,0,0,5,5h7.5v10H-35.248A4.755,4.755,0,0,0-40-30.248V-15h-5a5,5,0,0,0-5,5V5a5,5,0,0,0,5,5h15a5,5,0,0,0,5-5V-10a5,5,0,0,0-5-5h-5V-30H-2.5v15h-5a5,5,0,0,0-5,5V5a5,5,0,0,0,5,5h15a5,5,0,0,0,5-5V-10a5,5,0,0,0-5-5h-5V-30H35v15H30a5,5,0,0,0-5,5V5a5,5,0,0,0,5,5H45a5,5,0,0,0,5-5V-10A5,5,0,0,0,45-15Zm-75,5V5H-45V-10ZM7.5-10V5h-15V-10ZM-10-50V-65H10v15ZM45,5H30V-10H45Z" transform="translate(50 70)" fill="#2ca9e1"/></svg>