<svg xmlns="http://www.w3.org/2000/svg" width="99.98" height="70" viewBox="0 0 99.98 70"><g transform="translate(-288 -2261)"><path d="M48.42-12.459,30.091-44.178A12.89,12.89,0,0,0,20-50a12.89,12.89,0,0,0-10.09,5.82L-8.42-12.459a13.744,13.744,0,0,0-1.56,5.82A11.643,11.643,0,0,0,1.659,5H38.341A11.643,11.643,0,0,0,49.98-6.639,13.744,13.744,0,0,0,48.42-12.459ZM38.331,0H1.669A6.641,6.641,0,0,1-4.094-9.958L14.239-41.677A7.363,7.363,0,0,1,20-45a7.363,7.363,0,0,1,5.762,3.322L44.094-9.958A6.641,6.641,0,0,1,38.331,0ZM20-12.473a3.126,3.126,0,0,0-3.125,3.125A3.126,3.126,0,0,0,20-6.223a3.126,3.126,0,0,0,3.125-3.125A3.126,3.126,0,0,0,20-12.473Zm2.188-18.709H17.828a1.563,1.563,0,0,0-1.562,1.563c0,.043,0,.113.008.156l1.25,12.472a1.6,1.6,0,0,0,1.555,1.406h1.859a1.6,1.6,0,0,0,1.555-1.406l1.25-12.472c0-.043.008-.113.008-.156A1.563,1.563,0,0,0,22.188-31.183ZM-13.459,0H-40a5,5,0,0,1-5-5V-55a5,5,0,0,1,5-5H10a5,5,0,0,1,5,5v.781A20.158,20.158,0,0,1,20-55,10,10,0,0,0,10-65H-40A10,10,0,0,0-50-55V-5A10,10,0,0,0-40,5h29.761a20.338,20.338,0,0,1-2.525-3.33A16.321,16.321,0,0,1-13.459,0ZM-15-47.5v20A2.5,2.5,0,0,0-12.5-25,2.5,2.5,0,0,0-10-27.5v-20A2.5,2.5,0,0,0-12.5-50,2.5,2.5,0,0,0-15-47.5Zm-10,0v20A2.5,2.5,0,0,0-22.5-25,2.5,2.5,0,0,0-20-27.5v-20A2.5,2.5,0,0,0-22.5-50,2.5,2.5,0,0,0-25-47.5Zm-10,0v20A2.5,2.5,0,0,0-32.5-25,2.5,2.5,0,0,0-30-27.5v-20A2.5,2.5,0,0,0-32.5-50,2.5,2.5,0,0,0-35-47.5Z" transform="translate(338 2326)" fill="#2ca9e1"/></g></svg>