<svg xmlns="http://www.w3.org/2000/svg" width="89.002" height="79.992" viewBox="0 0 89.002 79.992"><g transform="translate(-2166.5 -1259.004)"><path d="M37.492,79.992a7.474,7.474,0,0,1-2.882-.574,46.762,46.762,0,0,1-12.461-7.863,60.137,60.137,0,0,1-11.113-12.83A67.131,67.131,0,0,1,3.057,41.386,74.583,74.583,0,0,1,0,20a7.466,7.466,0,0,1,4.625-6.922l30-12.5A8.986,8.986,0,0,1,37.507,0,8.986,8.986,0,0,1,40.39.574l30,12.5A7.472,7.472,0,0,1,75,20a77.482,77.482,0,0,1-1.532,15.529,20.687,20.687,0,0,0-4.84-1.9A68.55,68.55,0,0,0,69.984,20a2.493,2.493,0,0,0-1.531-2.313l-30-12.5A2.43,2.43,0,0,0,37.5,4.99a2.507,2.507,0,0,0-.965.194l-30,12.5A2.507,2.507,0,0,0,5,20C5,47.478,21.254,68.748,36.547,74.809a2.588,2.588,0,0,0,.966.188,2.5,2.5,0,0,0,.955-.188A37.726,37.726,0,0,0,48.508,68.7a21.117,21.117,0,0,0,3.9,3.133,47.344,47.344,0,0,1-12.037,7.584A7.479,7.479,0,0,1,37.492,79.992Z" transform="translate(2166.5 1259.004)" fill="#2ca9e1"/><path d="M21.206,1.755,11.01-8.44a1,1,0,0,0-.714-.294H9.188a17.421,17.421,0,0,0,4.25-11.422A17.466,17.466,0,0,0-4.031-37.625,17.466,17.466,0,0,0-21.5-20.156,17.466,17.466,0,0,0-4.031-2.687,17.421,17.421,0,0,0,7.391-6.937v1.109a1.032,1.032,0,0,0,.294.714l10.2,10.2a1.009,1.009,0,0,0,1.428,0l1.9-1.9A1.009,1.009,0,0,0,21.206,1.755ZM-4.031-6.719A13.434,13.434,0,0,1-17.469-20.156,13.434,13.434,0,0,1-4.031-33.594,13.434,13.434,0,0,1,9.406-20.156,13.434,13.434,0,0,1-4.031-6.719Z" transform="translate(2234 1333)" fill="#2ca9e1"/></g></svg>