<svg xmlns="http://www.w3.org/2000/svg" width="118.719" height="79.623" viewBox="0 0 118.719 79.623">
  <g id="icon_11" transform="translate(-910 -2914)">
    <path id="Path_10" data-name="Path 10" d="M35-35A12.5,12.5,0,0,0,47.5-47.5,12.5,12.5,0,0,0,35-60,12.5,12.5,0,0,0,22.5-47.5,12.5,12.5,0,0,0,35-35Zm0-20a7.5,7.5,0,0,1,7.5,7.5A7.5,7.5,0,0,1,35-40a7.5,7.5,0,0,1-7.5-7.5A7.5,7.5,0,0,1,35-55ZM0-30A17.491,17.491,0,0,0,17.5-47.5,17.491,17.491,0,0,0,0-65,17.491,17.491,0,0,0-17.5-47.5,17.491,17.491,0,0,0,0-30ZM0-60A12.517,12.517,0,0,1,12.5-47.5,12.517,12.517,0,0,1,0-35,12.517,12.517,0,0,1-12.5-47.5,12.517,12.517,0,0,1,0-60ZM38.125-30h-6.25a11.3,11.3,0,0,0-6.422,2.016,21.177,21.177,0,0,1,3.969,3.5A6.218,6.218,0,0,1,31.875-25h6.25C41.906-25,45-21.641,45-17.5A2.507,2.507,0,0,0,47.5-15,2.507,2.507,0,0,0,50-17.5C50-24.391,44.672-30,38.125-30ZM-35-35A12.5,12.5,0,0,0-22.5-47.5,12.5,12.5,0,0,0-35-60,12.5,12.5,0,0,0-47.5-47.5,12.5,12.5,0,0,0-35-35Zm0-20a7.5,7.5,0,0,1,7.5,7.5A7.5,7.5,0,0,1-35-40a7.5,7.5,0,0,1-7.5-7.5A7.5,7.5,0,0,1-35-55ZM12.516-26.875C7.3-26.875,6-25,0-25s-7.3-1.875-12.516-1.875a17.221,17.221,0,0,0-14.422,7.328A17.906,17.906,0,0,0-30-9.5v7A7.5,7.5,0,0,0-22.5,5h45A7.5,7.5,0,0,0,30-2.5v-7a17.906,17.906,0,0,0-3.062-10.047A17.221,17.221,0,0,0,12.516-26.875ZM25-2.5A2.507,2.507,0,0,1,22.5,0h-45A2.507,2.507,0,0,1-25-2.5v-7a12.982,12.982,0,0,1,2.2-7.25,12.229,12.229,0,0,1,10.266-5.125C-8.25-21.875-6.719-20,0-20s8.25-1.875,12.516-1.875A12.229,12.229,0,0,1,22.781-16.75a12.981,12.981,0,0,1,2.2,7.25v7ZM-25.453-27.984A11.378,11.378,0,0,0-31.875-30h-6.25C-44.672-30-50-24.391-50-17.5A2.507,2.507,0,0,0-47.5-15,2.507,2.507,0,0,0-45-17.5c0-4.141,3.094-7.5,6.875-7.5h6.25a6.218,6.218,0,0,1,2.453.516A21.677,21.677,0,0,1-25.453-27.984Z" transform="translate(960 2979)" fill="#2ca9e1"/>
    <path id="Path_11" data-name="Path 11" d="M16.856-29.172,1.481-35.579A4.6,4.6,0,0,0,0-35.873a4.6,4.6,0,0,0-1.477.294l-15.375,6.406a3.84,3.84,0,0,0-2.37,3.547c0,15.9,9.169,26.882,17.737,30.454a3.856,3.856,0,0,0,2.955,0C8.336,1.97,19.219-7.9,19.219-25.625A3.845,3.845,0,0,0,16.856-29.172ZM.008-.136,0-30.646l14.086,5.87C13.821-12.652,7.511-3.868.008-.136Z" transform="translate(1009.5 2988.5)" fill="#2ca9e1"/>
  </g>
</svg>
