<svg xmlns="http://www.w3.org/2000/svg" width="60" height="80" viewBox="0 0 60 80"><path d="M22.5-60H8.656a8.272,8.272,0,0,0,.094-1.25A8.756,8.756,0,0,0,0-70a8.756,8.756,0,0,0-8.75,8.75A8.272,8.272,0,0,0-8.656-60H-22.5A7.5,7.5,0,0,0-30-52.5v55A7.5,7.5,0,0,0-22.5,10h45A7.5,7.5,0,0,0,30,2.5v-55A7.5,7.5,0,0,0,22.5-60ZM0-65a3.741,3.741,0,0,1,3.75,3.75A3.741,3.741,0,0,1,0-57.5a3.741,3.741,0,0,1-3.75-3.75A3.741,3.741,0,0,1,0-65ZM25,2.5A2.507,2.507,0,0,1,22.5,5h-45A2.507,2.507,0,0,1-25,2.5v-55A2.507,2.507,0,0,1-22.5-55H-15v3.125A1.881,1.881,0,0,0-13.125-50h26.25A1.881,1.881,0,0,0,15-51.875V-55h7.5A2.507,2.507,0,0,1,25-52.5ZM-12.5-18.75A3.741,3.741,0,0,0-16.25-15a3.741,3.741,0,0,0,3.75,3.75A3.741,3.741,0,0,0-8.75-15,3.741,3.741,0,0,0-12.5-18.75ZM13.75-17.5H-3.75A1.254,1.254,0,0,0-5-16.25v2.5A1.254,1.254,0,0,0-3.75-12.5h17.5A1.254,1.254,0,0,0,15-13.75v-2.5A1.254,1.254,0,0,0,13.75-17.5ZM-10.281-27.75-.25-37.688a.839.839,0,0,0,0-1.187l-1.969-1.984a.839.839,0,0,0-1.187,0l-7.438,7.375-3.219-3.266a.839.839,0,0,0-1.187,0l-1.984,1.969a.839.839,0,0,0,0,1.187l5.8,5.844A.8.8,0,0,0-10.281-27.75ZM13.75-32.5H1.625l-5.047,5H13.75A1.254,1.254,0,0,0,15-28.75v-2.5A1.254,1.254,0,0,0,13.75-32.5Z" transform="translate(30 70)" fill="#2ca9e1"/></svg>