<svg xmlns="http://www.w3.org/2000/svg" width="80.004" height="80.004" viewBox="0 0 80.004 80.004"><g transform="translate(-713 -1404)"><path d="M39.453,5.25,19.3-14.906a1.855,1.855,0,0,0-1.328-.547H16.359A32.357,32.357,0,0,0,25-37.5,32.495,32.495,0,0,0-7.5-70,32.495,32.495,0,0,0-40-37.5,32.495,32.495,0,0,0-7.5-5a32.417,32.417,0,0,0,22.047-8.625v1.594a1.922,1.922,0,0,0,.547,1.328L35.25,9.453a1.877,1.877,0,0,0,2.656,0l1.547-1.547A1.877,1.877,0,0,0,39.453,5.25ZM-7.5-10A27.48,27.48,0,0,1-35-37.5,27.48,27.48,0,0,1-7.5-65,27.48,27.48,0,0,1,20-37.5,27.48,27.48,0,0,1-7.5-10Z" transform="translate(753 1474)" fill="#2ca9e1"/><path d="M16.239-5.409l-3.1-4.656a1.805,1.805,0,0,0-1.507-.8H5.183l5.1-1.7a1.809,1.809,0,0,0,.935-.714l3.2-4.8a.45.45,0,0,0-.125-.629l-.753-.5a.45.45,0,0,0-.629.125L9.8-14.421a.422.422,0,0,1-.232.176L4.86-12.676l3.008-6.015a2.679,2.679,0,0,0,.147-2.079L6.582-25.063a.453.453,0,0,0-.572-.289l-.861.289a.453.453,0,0,0-.289.572L6.293-20.2a.866.866,0,0,1-.051.691l-2.067,4.14-.232-1.161A4.137,4.137,0,0,0,0-19.932a4.142,4.142,0,0,0-3.942,3.4l-.232,1.161-2.067-4.14a.89.89,0,0,1-.051-.691l1.433-4.293a.453.453,0,0,0-.289-.572l-.861-.289a.453.453,0,0,0-.572.289L-8.015-20.77a2.706,2.706,0,0,0,.147,2.079l3.008,6.015-4.707-1.569a.482.482,0,0,1-.232-.176l-3.115-4.673a.449.449,0,0,0-.629-.125l-.753.5a.449.449,0,0,0-.125.629l3.2,4.8a1.8,1.8,0,0,0,.935.714l5.1,1.7h-6.44a1.8,1.8,0,0,0-1.507.8l-3.11,4.656a.45.45,0,0,0,.125.629l.753.5a.45.45,0,0,0,.629-.125l2.968-4.458a.463.463,0,0,1,.38-.2H-5.6L-9.555-2.736a2.7,2.7,0,0,0-.413,1.444V3.172a.454.454,0,0,0,.453.453h.906a.454.454,0,0,0,.453-.453V-1.422a.432.432,0,0,1,.068-.238l2.656-4.254c0,.057-.011.113-.011.17A5.62,5.62,0,0,0-.006,0,5.623,5.623,0,0,0,5.432-5.743c0-.057-.006-.113-.006-.17L8.083-1.66a.446.446,0,0,1,.068.238V3.172a.454.454,0,0,0,.453.453H9.51a.454.454,0,0,0,.453-.453V-1.291A2.724,2.724,0,0,0,9.55-2.736L5.6-9.062h5.783a.449.449,0,0,1,.38.2L14.732-4.4a.449.449,0,0,0,.629.125l.753-.5A.461.461,0,0,0,16.239-5.409ZM0-1.812A3.8,3.8,0,0,1-3.625-5.743a31.751,31.751,0,0,1,.617-6.213l.844-4.214A2.313,2.313,0,0,1,0-18.119a2.313,2.313,0,0,1,2.164,1.948l.844,4.214a31.794,31.794,0,0,1,.617,6.213A3.8,3.8,0,0,1,0-1.812Z" transform="translate(745 1447)" fill="#2ca9e1"/></g></svg>