<svg xmlns="http://www.w3.org/2000/svg" width="70" height="80" viewBox="0 0 70 80"><path d="M27.5-35H25v-9.766A25.158,25.158,0,0,0,.078-70,25.02,25.02,0,0,0-25-45v10h-2.5A7.5,7.5,0,0,0-35-27.5v30A7.5,7.5,0,0,0-27.5,10h55A7.5,7.5,0,0,0,35,2.5v-30A7.5,7.5,0,0,0,27.5-35ZM-20-45A20.019,20.019,0,0,1,0-65,20.019,20.019,0,0,1,20-45v10H-20ZM27.5,5h-55A2.507,2.507,0,0,1-30,2.5v-30A2.507,2.507,0,0,1-27.5-30h55A2.507,2.507,0,0,1,30-27.5v30A2.507,2.507,0,0,1,27.5,5Z" transform="translate(35 70)" fill="#2ca9e1"/></svg>