<svg xmlns="http://www.w3.org/2000/svg" width="70" height="80" viewBox="0 0 70 80"><path d="M67.8,15.313,54.688,2.2a7.5,7.5,0,0,0-5.3-2.2H17.516a7.525,7.525,0,0,0-7.5,7.516V45H1.25A1.254,1.254,0,0,0,0,46.25v2.5A1.254,1.254,0,0,0,1.25,50h19.7l5.422,10.859a1.248,1.248,0,0,0,2.234,0L37.5,43.094,40.953,50H55a2.5,2.5,0,0,0,0-5H44.047L38.625,34.141a1.248,1.248,0,0,0-2.234,0L27.5,51.906l-3.109-6.219A1.256,1.256,0,0,0,23.266,45H15V7.516A2.534,2.534,0,0,1,17.516,5h27.5V21.266A3.728,3.728,0,0,0,48.766,25h16.25V72.5a2.507,2.507,0,0,1-2.5,2.5h-45A2.521,2.521,0,0,1,15,72.5V55H10.016V72.5a7.5,7.5,0,0,0,7.5,7.5H62.5A7.5,7.5,0,0,0,70,72.5V20.625A7.536,7.536,0,0,0,67.8,15.313ZM50,20.016V5.094a2.46,2.46,0,0,1,1.156.656L64.266,18.859a2.457,2.457,0,0,1,.656,1.156Z" fill="#2ca9e1"/></svg>