<svg xmlns="http://www.w3.org/2000/svg" width="15.75" height="18" viewBox="0 0 15.75 18"><path d="M5.2,10.375a.423.423,0,0,0,.422-.422V8.547A.423.423,0,0,0,5.2,8.125H3.8a.423.423,0,0,0-.422.422V9.953a.423.423,0,0,0,.422.422ZM9,9.953V8.547a.423.423,0,0,0-.422-.422H7.172a.423.423,0,0,0-.422.422V9.953a.423.423,0,0,0,.422.422H8.578A.423.423,0,0,0,9,9.953Zm3.375,0V8.547a.423.423,0,0,0-.422-.422H10.547a.423.423,0,0,0-.422.422V9.953a.423.423,0,0,0,.422.422h1.406A.423.423,0,0,0,12.375,9.953ZM9,13.328V11.922a.423.423,0,0,0-.422-.422H7.172a.423.423,0,0,0-.422.422v1.406a.423.423,0,0,0,.422.422H8.578A.423.423,0,0,0,9,13.328Zm-3.375,0V11.922A.423.423,0,0,0,5.2,11.5H3.8a.423.423,0,0,0-.422.422v1.406a.423.423,0,0,0,.422.422H5.2A.423.423,0,0,0,5.625,13.328Zm6.75,0V11.922a.423.423,0,0,0-.422-.422H10.547a.423.423,0,0,0-.422.422v1.406a.423.423,0,0,0,.422.422h1.406A.423.423,0,0,0,12.375,13.328ZM15.75,4.188A1.688,1.688,0,0,0,14.063,2.5H12.375V.672A.423.423,0,0,0,11.953.25H10.547a.423.423,0,0,0-.422.422V2.5h-4.5V.672A.423.423,0,0,0,5.2.25H3.8a.423.423,0,0,0-.422.422V2.5H1.688A1.688,1.688,0,0,0,0,4.188V16.563A1.688,1.688,0,0,0,1.688,18.25H14.063a1.688,1.688,0,0,0,1.688-1.687ZM14.063,16.352a.212.212,0,0,1-.211.211H1.9a.212.212,0,0,1-.211-.211V5.875H14.063Z" transform="translate(0 -0.25)" fill="#2ca9e1"/></svg>