<svg xmlns="http://www.w3.org/2000/svg" width="22.496" height="15.75" viewBox="0 0 22.496 15.75"><path d="M19.125,8.125a2.813,2.813,0,1,0-2.812-2.812A2.812,2.812,0,0,0,19.125,8.125Zm0-3.937A1.125,1.125,0,1,1,18,5.313,1.128,1.128,0,0,1,19.125,4.188ZM3.375,8.125A2.813,2.813,0,1,0,.563,5.313,2.812,2.812,0,0,0,3.375,8.125Zm0-3.937A1.125,1.125,0,1,1,2.25,5.313,1.128,1.128,0,0,1,3.375,4.188ZM17.311,11.6a4.008,4.008,0,0,0-4.493-1.466,5.36,5.36,0,0,1-3.143,0A4,4,0,0,0,5.182,11.6a4.029,4.029,0,0,0-.689,2.261v1.575A1.688,1.688,0,0,0,6.18,17.125H16.305a1.688,1.688,0,0,0,1.688-1.687V13.863A3.969,3.969,0,0,0,17.311,11.6Zm-1,3.836H6.188V13.863a2.369,2.369,0,0,1,2.3-2.363,7.068,7.068,0,0,0,5.527,0,2.367,2.367,0,0,1,2.3,2.363ZM19.547,9.25H18.7a2.943,2.943,0,0,0-1.645.5,5.137,5.137,0,0,1,1.209,1.273,1.281,1.281,0,0,1,.432-.088h.844A1.269,1.269,0,0,1,20.809,12.2a.844.844,0,0,0,1.688,0A2.952,2.952,0,0,0,19.547,9.25Zm-8.3,0A3.938,3.938,0,1,0,7.313,5.313,3.935,3.935,0,0,0,11.25,9.25Zm0-6.187A2.25,2.25,0,1,1,9,5.313,2.252,2.252,0,0,1,11.25,3.063ZM5.442,9.753A2.943,2.943,0,0,0,3.8,9.25H2.953A2.957,2.957,0,0,0,0,12.2a.844.844,0,0,0,1.688,0,1.269,1.269,0,0,1,1.266-1.266H3.8a1.247,1.247,0,0,1,.432.088A5.217,5.217,0,0,1,5.442,9.753Z" transform="translate(0 -1.375)" fill="#2ca9e1"/></svg>