<svg xmlns="http://www.w3.org/2000/svg" width="10.126" height="18" viewBox="0 0 10.126 18"><path d="M7.45,8.761,3.361,7.594A1.5,1.5,0,0,1,2.268,6.416,1.443,1.443,0,0,1,3.691,4.75H6.286a2.718,2.718,0,0,1,1.561.5.56.56,0,0,0,.721-.06l.805-.805a.569.569,0,0,0-.053-.847A4.931,4.931,0,0,0,6.286,2.5h-.1V.813A.564.564,0,0,0,5.625.25H4.5a.564.564,0,0,0-.562.563V2.5H3.85A3.81,3.81,0,0,0,.109,5.3a3.7,3.7,0,0,0,2.566,4.44l4.089,1.167a1.5,1.5,0,0,1,1.093,1.178A1.443,1.443,0,0,1,6.434,13.75H3.839a2.718,2.718,0,0,1-1.561-.5.56.56,0,0,0-.721.06l-.805.805a.569.569,0,0,0,.053.847A4.916,4.916,0,0,0,3.839,16h.1v1.688a.564.564,0,0,0,.563.563H5.625a.564.564,0,0,0,.563-.562V16h.088a3.81,3.81,0,0,0,3.741-2.8A3.7,3.7,0,0,0,7.45,8.761Z" transform="translate(0 -0.25)" fill="#2ca9e1"/></svg>